<svg xmlns="http://www.w3.org/2000/svg" xmlns:xlink="http://www.w3.org/1999/xlink" width="500" zoomAndPan="magnify" viewBox="0 0 375 374.999991" height="500" preserveAspectRatio="xMidYMid meet" version="1.0"><defs><g/></defs><g fill="#000000" fill-opacity="1"><g transform="translate(57.410157, 226.968823)"><g><path d="M 4.71875 -18.144531 C 4.71875 -5.324219 10.039062 1.210938 20.566406 1.210938 C 31.574219 1.210938 36.894531 -5.804688 36.894531 -20.203125 C 36.894531 -22.378906 36.773438 -24.316406 36.652344 -28.667969 L 25.402344 -28.667969 C 25.523438 -24.917969 25.644531 -22.742188 25.644531 -20.324219 C 25.644531 -11.734375 24.554688 -9.316406 20.566406 -9.316406 C 16.933594 -9.316406 15.96875 -11.128906 15.96875 -18.144531 L 15.96875 -62.539062 C 15.96875 -69.554688 16.933594 -71.371094 20.566406 -71.371094 C 24.554688 -71.371094 25.644531 -68.953125 25.644531 -60 C 25.644531 -58.0625 25.644531 -56.976562 25.402344 -54.433594 L 36.652344 -54.433594 C 36.894531 -57.582031 36.894531 -58.910156 36.894531 -60.847656 C 36.894531 -74.878906 31.453125 -81.894531 20.566406 -81.894531 C 10.039062 -81.894531 4.71875 -75.363281 4.71875 -62.539062 Z M 4.71875 -18.144531 "/></g></g></g><g fill="#000000" fill-opacity="1"><g transform="translate(98.536902, 226.968823)"><g><path d="M 4.71875 -20.566406 C 4.71875 -11.007812 5.082031 -8.953125 7.257812 -5.445312 C 9.917969 -1.332031 15 1.210938 20.683594 1.210938 C 26.371094 1.210938 31.453125 -1.332031 34.113281 -5.445312 C 36.289062 -8.953125 36.652344 -10.886719 36.652344 -20.566406 L 36.652344 -60.242188 C 36.652344 -69.796875 36.289062 -71.855469 34.113281 -75.363281 C 31.453125 -79.355469 26.371094 -81.894531 20.683594 -81.894531 C 15 -81.894531 9.917969 -79.355469 7.257812 -75.363281 C 5.082031 -71.855469 4.71875 -69.796875 4.71875 -60.242188 Z M 25.402344 -15.847656 C 25.402344 -11.25 23.953125 -9.316406 20.683594 -9.316406 C 17.296875 -9.316406 15.96875 -11.25 15.96875 -15.847656 L 15.96875 -64.839844 C 15.96875 -69.433594 17.417969 -71.371094 20.683594 -71.371094 C 24.074219 -71.371094 25.402344 -69.433594 25.402344 -64.839844 Z M 25.402344 -15.847656 "/></g></g></g><g fill="#000000" fill-opacity="1"><g transform="translate(139.784599, 226.968823)"><g><path d="M 4.839844 0 L 16.089844 0 L 16.089844 -34.234375 C 17.78125 -34.355469 18.144531 -34.355469 20.082031 -34.71875 L 26.613281 0 L 38.710938 0 L 30.847656 -38.589844 C 35.445312 -44.515625 36.53125 -48.144531 36.53125 -58.183594 C 36.53125 -65.683594 35.203125 -70.886719 32.417969 -74.757812 C 29.273438 -79.234375 25.039062 -80.683594 15.847656 -80.683594 L 4.839844 -80.683594 Z M 16.089844 -45.605469 L 16.089844 -70.160156 L 17.660156 -70.160156 C 23.953125 -70.160156 25.523438 -68.105469 25.523438 -59.394531 C 25.523438 -52.136719 25.402344 -50.203125 24.554688 -48.628906 C 23.46875 -46.574219 21.289062 -45.605469 17.660156 -45.605469 Z M 16.089844 -45.605469 "/></g></g></g><g fill="#000000" fill-opacity="1"><g transform="translate(181.879033, 226.968823)"><g><path d="M 4.839844 0 L 16.089844 0 L 16.089844 -80.683594 L 4.839844 -80.683594 Z M 4.839844 0 "/></g></g></g><g fill="#000000" fill-opacity="1"><g transform="translate(202.805285, 226.968823)"><g><path d="M 13.789062 0 L 24.917969 0 L 36.652344 -80.683594 L 25.886719 -80.683594 L 19.476562 -31.574219 L 12.703125 -80.683594 L 1.574219 -80.683594 Z M 13.789062 0 "/></g></g></g><g fill="#000000" fill-opacity="1"><g transform="translate(241.028962, 226.968823)"><g><path d="M 3.265625 0 L 14.152344 0 L 16.089844 -18.144531 L 26.25 -18.144531 L 28.304688 0 L 39.3125 0 L 28.789062 -80.683594 L 14.273438 -80.683594 Z M 17.296875 -28.667969 L 21.167969 -66.046875 L 25.039062 -28.667969 Z M 17.296875 -28.667969 "/></g></g></g><g fill="#000000" fill-opacity="1"><g transform="translate(283.60724, 226.968823)"><g><path d="M 4.839844 0 L 32.054688 0 L 32.054688 -10.523438 L 16.089844 -10.523438 L 16.089844 -80.683594 L 4.839844 -80.683594 Z M 4.839844 0 "/></g></g></g></svg>